<svg width="52" height="52" viewBox="0 0 52 52" fill="none" xmlns="http://www.w3.org/2000/svg">
<g style="mix-blend-mode:multiply">
<path opacity="0.02" d="M45.2644 9.65571C45.2838 7.06798 44.5067 4.1698 42.0751 3.55655C39.0526 2.77508 36.2746 3.50789 32.4638 4.25667C26.8903 5.33595 19.9932 6.60416 18.8096 6.95231C16.7076 7.53812 14.0298 10.6741 14.0104 13.2619L13.853 38.5853C13.8336 41.173 16.3442 43.2038 18.5674 43.7174C20.1343 44.0798 29.4525 46.2057 35.3431 47.5015C37.6947 48.0238 40.4423 48.0806 42.1815 47.128C44.6134 45.7727 45.0898 41.4613 45.0892 38.8508L45.2644 9.65571Z" fill="#FCFCFC"/>
<path opacity="0.05" d="M45.1083 9.75235C45.1276 7.16462 44.3278 4.2863 41.8733 3.6929C38.9336 2.95981 36.1585 3.65002 32.4361 4.36196C26.9937 5.40729 19.9682 6.66685 18.7646 6.99226C16.6626 7.57807 13.9877 10.6715 13.9683 13.2592L13.7908 38.5599C13.7714 41.1477 16.262 43.1557 18.5052 43.6921C20.0293 44.0516 29.4359 46.1406 35.1781 47.405C37.467 47.9017 40.2146 47.9585 41.9309 47.0257C44.3828 45.6932 44.8765 41.4471 44.8959 38.8594L45.0855 9.77221L45.1083 9.75235Z" fill="#F9F9FA"/>
<path opacity="0.07" d="M44.9491 9.89154C44.9685 7.3038 44.123 4.4652 41.6913 3.85195C38.8145 3.14449 36.0621 3.81483 32.4281 4.48994C27.117 5.50132 19.943 6.72949 18.7822 7.05778C16.6803 7.64358 14.0081 10.6944 13.9887 13.2821L13.834 38.563C13.8146 41.1507 16.3052 43.1587 18.5513 43.6525C20.0353 43.9665 29.5303 46.0187 35.1241 47.2517C37.3474 47.7653 40.0978 47.7796 41.7685 46.8865C44.1976 45.5739 44.7513 41.396 44.7707 38.8083L44.9519 9.84893L44.9491 9.89154Z" fill="#F6F6F7"/>
<path opacity="0.1" d="M44.7923 9.98814C44.8117 7.40041 43.9435 4.58167 41.489 3.98828C38.6749 3.30645 35.9454 3.95693 32.4198 4.61795C27.2598 5.61812 19.9175 6.79214 18.7795 7.10057C16.6575 7.66363 14.0081 10.6946 13.9888 13.2823L13.8369 38.5205C13.8175 41.1083 16.2881 43.0935 18.5541 43.6101C19.9953 43.9212 29.5788 45.9366 35.0241 47.1382C37.1846 47.6261 39.935 47.6404 41.5602 46.7871C43.9865 45.517 44.5801 41.3846 44.5995 38.7969L44.7723 9.9654L44.7923 9.98814Z" fill="#F3F3F4"/>
<path opacity="0.12" d="M44.6556 10.1074C44.675 7.51966 43.7812 4.76338 41.3267 4.16998C38.5982 3.49392 35.8915 4.12455 32.4315 4.76859C27.4027 5.73482 19.8892 6.8973 18.8168 7.18876C16.6948 7.75182 14.0482 10.7402 14.0288 13.3279L13.8569 38.5434C13.8376 41.1311 16.3081 43.1164 18.5542 43.6102C19.9526 43.9184 29.6273 45.8544 34.9442 47.0473C37.0419 47.5096 39.7923 47.5239 41.3718 46.7103C43.7982 45.4402 44.449 41.4187 44.4484 38.8082L44.6328 10.1273L44.6556 10.1074Z" fill="#F0F0F1"/>
<path opacity="0.15" d="M44.499 10.204C44.5184 7.61627 43.6018 4.87985 41.1473 4.28645C38.5016 3.65877 35.7776 4.22404 32.4233 4.89659C27.5257 5.82887 19.8838 6.9827 18.8342 7.2543C16.7122 7.81736 14.0912 10.7432 14.0718 13.331L13.9027 38.5038C13.8833 41.0916 16.3339 43.0541 18.6 43.5706C19.9784 43.8561 29.7187 45.7751 34.8672 46.9139C36.922 47.3733 39.6525 47.3648 41.1864 46.591C43.5899 45.3408 44.3008 41.3875 44.3202 38.7997L44.519 10.2267L44.499 10.204Z" fill="#EDEDEF"/>
<path opacity="0.17" d="M44.3416 10.3007C44.361 7.713 43.3988 5.01631 40.9443 4.42291C38.3614 3.82086 35.6602 4.36626 32.3943 5.00199C27.6479 5.92306 19.8375 7.02274 18.8107 7.27448C16.6688 7.8148 14.0706 10.7208 14.0512 13.3085L13.8821 38.4814C13.8627 41.0691 16.3133 43.0317 18.5594 43.5254C19.895 43.8081 29.7264 45.6476 34.7465 46.7777C36.7386 47.2116 39.469 47.203 40.9802 46.449C43.4037 45.2216 44.1318 41.3336 44.1512 38.7459L44.3416 10.3007Z" fill="#E9EAEC"/>
<path opacity="0.2" d="M44.2049 10.4199C44.2243 7.83222 43.2393 5.15539 40.762 4.58185C38.2847 4.00832 35.5636 4.53097 32.406 5.15261C27.7908 6.03973 19.832 7.10801 18.8481 7.36263C16.7061 7.90295 14.1107 10.7664 14.0913 13.3541L13.925 38.4844C13.9056 41.0721 16.3334 43.0545 18.6023 43.5284C19.8951 43.8081 29.8149 45.6109 34.6667 46.6868C36.6159 47.1178 39.3263 47.0865 40.7919 46.3722C43.1926 45.1646 43.9807 41.3449 44.0001 38.7572L44.1821 10.4398L44.2049 10.4199Z" fill="#E6E7E9"/>
<path opacity="0.22" d="M44.0258 10.5364C44.0452 7.94867 43.0146 5.31156 40.5801 4.74091C38.1457 4.17026 35.4673 4.6958 32.3981 5.2806C27.9142 6.13377 19.807 7.17064 18.8458 7.4054C16.7038 7.94571 14.1112 10.7665 14.0918 13.3543L13.9283 38.4419C13.9089 41.0296 16.3167 42.9893 18.6084 43.4433C19.8584 43.7202 29.8694 45.4435 34.5928 46.5108C36.4564 46.936 39.1868 46.9274 40.6096 46.2103C43.0303 45.0254 43.8356 41.2711 43.855 38.6833L44.0286 10.4938L44.0258 10.5364Z" fill="#E3E4E6"/>
<path opacity="0.24" d="M43.8895 10.6556C43.9088 8.06792 42.8554 5.45067 40.3982 4.89988C37.9409 4.34909 35.3709 4.86054 32.4101 5.43125C28.0774 6.27321 19.8018 7.25595 18.8834 7.4936C16.7214 8.01116 14.1516 10.8121 14.1323 13.3998L13.9687 38.4875C13.9494 41.0752 16.3571 43.0349 18.6488 43.4889C19.8588 43.7203 29.9554 45.4493 34.5104 46.4625C36.3112 46.862 39.0416 46.8535 40.4188 46.1761C42.8167 45.0111 43.702 41.3477 43.7214 38.76L43.9095 10.6784L43.8895 10.6556Z" fill="#E0E1E4"/>
<path opacity="0.27" d="M43.7317 10.7524C43.751 8.16464 42.652 5.58711 40.1948 5.03632C37.9059 4.53968 35.2531 5.00276 32.3807 5.53663C28.202 6.32479 19.7752 7.31872 18.8596 7.51377C16.6976 8.03133 14.1306 10.7897 14.1112 13.3774L13.9505 38.4225C13.9311 41.0102 16.3189 42.9471 18.6106 43.4011C19.7778 43.6296 29.9856 45.302 34.3921 46.2837C36.1502 46.6804 38.8606 46.6491 40.215 45.9915C42.6129 44.8266 43.5354 41.2513 43.5548 38.6635L43.7345 10.7098L43.7317 10.7524Z" fill="#DDDFE1"/>
<path opacity="0.29" d="M43.5941 10.8715C43.6135 8.28381 42.4917 5.72614 40.0344 5.17535C37.8312 4.68447 35.1584 5.12482 32.3916 5.6872C28.364 6.46416 19.7688 7.40394 18.8732 7.62173C16.7113 8.1393 14.1471 10.855 14.1277 13.4428L13.947 38.4651C13.9276 41.0528 16.3154 42.9898 18.607 43.4438C19.7314 43.6694 30.0077 45.2822 34.2658 46.2325C35.961 46.6036 38.6714 46.5723 39.9802 45.9544C42.3753 44.832 43.3379 41.3022 43.3572 38.7145L43.5285 10.8885L43.5941 10.8715Z" fill="#DADCDE"/>
<path opacity="0.32" d="M43.4383 10.9683C43.4576 8.38053 42.2902 5.86257 39.853 5.33452C37.7125 4.86928 35.0625 5.28976 32.3841 5.81531C28.4878 6.55832 19.7442 7.4667 18.8714 7.66463C16.6894 8.15945 14.148 10.8553 14.1286 13.4431L13.9707 38.4455C13.9513 41.0332 16.3191 42.9474 18.6308 43.4242C19.7352 43.627 30.0998 45.203 34.2095 46.1219C35.8619 46.4901 38.5524 46.4361 39.8155 45.8579C42.2106 44.7356 43.2104 41.2938 43.2298 38.7061L43.4155 10.9881L43.4383 10.9683Z" fill="#D7D9DB"/>
<path opacity="0.34" d="M43.2814 11.0648C43.298 8.51968 42.1106 5.97899 39.6506 5.4708C37.5729 5.03119 34.9457 5.43181 32.3557 5.92052C28.5906 6.62958 19.6986 7.50656 18.8686 7.70738C16.6638 8.22206 14.148 10.8555 14.1514 13.4233L13.9963 38.3832C13.9797 40.9283 16.3447 42.8851 18.6591 43.3193C19.7208 43.5192 30.1538 45.0356 34.1379 45.9033C35.7275 46.2458 38.4379 46.2145 39.6355 45.6533C42.0278 44.5736 43.0675 41.1773 43.1069 38.6124L43.2842 11.0222L43.2814 11.0648Z" fill="#D4D6D9"/>
<path opacity="0.37" d="M43.1219 11.2039C43.1384 8.6588 41.9054 6.15783 39.4682 5.62979C37.4961 5.21869 34.8489 5.59657 32.3673 6.07119C28.7534 6.76904 19.693 7.59187 18.9058 7.79557C16.701 8.31025 14.208 10.9238 14.1914 13.4689L14.0163 38.406C13.9997 40.9511 16.3647 42.9079 18.6791 43.3421C19.698 43.5392 30.2422 44.9988 34.0551 45.855C35.5591 46.1917 38.2923 46.1406 39.4671 45.5993C41.8594 44.5195 42.9363 41.2114 42.9757 38.6464L43.1447 11.1841L43.1219 11.2039Z" fill="#D1D3D6"/>
<path opacity="0.39" d="M42.964 11.3006C42.9806 8.75548 41.7248 6.27437 39.2647 5.76618C37.3555 5.38072 34.7311 5.73873 32.3379 6.17652C28.8551 6.84043 19.6463 7.63186 18.8819 7.8157C16.6572 8.30763 14.1869 10.9013 14.1704 13.4465L14.018 38.3637C14.0014 40.9088 16.3464 42.8428 18.6609 43.277C19.6369 43.4712 30.2495 44.8713 33.9368 45.6762C35.398 46.01 38.1112 45.9362 39.2404 45.4346C41.6099 44.3747 42.7669 41.1575 42.7863 38.5698L42.9468 11.2353L42.964 11.3006Z" fill="#CED0D3"/>
<path opacity="0.41" d="M42.827 11.4198C42.8436 8.87473 41.5422 6.43333 39.1022 5.94789C37.2785 5.5682 34.6541 5.92621 32.3693 6.34991C29.0178 6.97986 19.6806 7.76264 18.939 7.92662C16.7142 8.41855 14.2468 10.9696 14.2302 13.5148L14.0579 38.4092C14.0413 40.9544 16.3863 42.8884 18.7007 43.3226C19.6567 43.494 30.3577 44.8573 33.8738 45.6506C35.2722 45.9588 37.9855 45.885 39.069 45.4231C41.4586 44.386 42.6327 41.2341 42.6521 38.6464L42.827 11.4198Z" fill="#CBCDD1"/>
<path opacity="0.44" d="M42.6707 11.5164C42.6873 8.97132 41.3631 6.54979 38.9231 6.06435C37.1622 5.71028 34.5406 6.0257 32.3642 6.43531C29.1639 7.05405 19.6583 7.78268 18.9395 7.9268C16.6947 8.39599 14.2501 10.9272 14.2335 13.4723L14.064 38.3242C14.0474 40.8693 16.3723 42.7806 18.6868 43.2148C19.6 43.3833 30.3694 44.687 33.7799 45.4518C35.1355 45.7572 37.8259 45.7032 38.8667 45.2384C41.2334 44.2211 42.4676 41.1376 42.507 38.5726L42.6935 11.4966L42.6707 11.5164Z" fill="#C8CACE"/>
<path opacity="0.46" d="M42.5137 11.613C42.5303 9.06786 41.1605 6.68604 38.7205 6.20061C37.0224 5.87217 34.4464 6.14786 32.3328 6.5831C29.2637 7.1679 19.5869 7.88499 18.9337 8.01213C16.6889 8.48132 14.2471 10.9699 14.2305 13.5151L14.0838 38.3471C14.0672 40.8922 16.3921 42.8035 18.7066 43.2376C19.577 43.4033 30.4576 44.6503 33.6769 45.3808C34.9697 45.6606 37.6601 45.6065 38.6553 45.1815C41.042 44.187 42.2934 41.1687 42.3328 38.6038L42.5109 11.6556L42.5137 11.613Z" fill="#C5C7CB"/>
<path opacity="0.49" d="M42.3775 11.7325C42.3941 9.18737 41.0015 6.82541 38.5387 6.35983C36.9262 6.03717 34.3502 6.31285 32.325 6.71126C29.3871 7.2621 19.5618 7.9478 18.9314 8.05508C16.6867 8.52427 14.2704 10.9504 14.2311 13.5154L14.0643 38.3247C14.0477 40.8698 16.3299 42.7782 18.69 43.1727C19.5176 43.3354 30.4666 44.5229 33.5802 45.2249C34.8303 45.5017 37.5007 45.425 38.4731 45.0198C40.837 44.0451 42.1484 41.0951 42.1878 38.5301L42.3575 11.7097L42.3775 11.7325Z" fill="#C2C4C8"/>
<path opacity="0.51" d="M42.1972 11.8488C42.2138 9.30372 40.7756 6.98148 38.3556 6.51879C36.8059 6.22175 34.2527 6.47758 32.336 6.86189C29.5492 7.40154 19.5556 8.03309 18.9452 8.16312C16.6804 8.60957 14.287 11.0159 14.2704 13.561L14.1064 38.3276C14.0899 40.8727 16.372 42.7811 18.7321 43.1756C19.5197 43.2929 30.5543 44.4861 33.4995 45.1339C34.664 45.405 37.3772 45.3311 38.284 44.9429C40.6679 43.991 42.0165 41.1291 42.013 38.5612L42.1972 11.8488Z" fill="#BEC1C6"/>
<path opacity="0.54" d="M42.0605 11.9682C42.0771 9.42303 40.6161 7.12065 38.1732 6.67782C36.7292 6.4093 34.156 6.64238 32.3276 6.98986C29.672 7.49555 19.53 8.0957 18.9424 8.20587C16.6776 8.65232 14.287 11.016 14.2704 13.5611L14.1065 38.3278C14.0899 40.8729 16.352 42.7586 18.7121 43.153C19.4569 43.2674 30.6027 44.4039 33.3995 45.0204C34.5012 45.2658 37.2144 45.1919 38.0756 44.8435C40.4595 43.8915 41.8453 41.1177 41.8619 38.5726L42.0377 11.988L42.0605 11.9682Z" fill="#BBBEC3"/>
<path opacity="0.56" d="M41.9035 12.0647C41.9201 9.51962 40.4335 7.27971 37.9706 6.81413C36.5894 6.57125 34.039 6.78448 32.319 7.11787C29.8146 7.61235 19.5042 8.15835 18.9594 8.2714C16.6719 8.73771 14.3068 11.0389 14.2902 13.5841L14.1291 38.3081C14.1125 40.8532 16.3747 42.7389 18.7347 43.1333C19.4367 43.2448 30.6509 44.3217 33.2994 44.9068C34.3582 45.1494 37.0714 45.0755 37.887 44.7667C40.2481 43.8346 41.7167 41.1092 41.7105 38.584L41.8779 12.1272L41.9035 12.0647Z" fill="#B8BBC0"/>
<path opacity="0.59" d="M41.7481 12.1613C41.7646 9.61615 40.2553 7.39611 37.7924 6.93053C36.4968 6.69341 33.9464 6.90663 32.3148 7.20319C29.9416 7.66373 19.4828 8.17831 18.9808 8.29425C16.6732 8.73781 14.331 11.0192 14.3144 13.5643L14.1561 38.2457C14.1395 40.7908 16.3816 42.6537 18.7417 43.0482C19.4009 43.1568 30.7263 44.177 33.2263 44.7307C34.2223 44.9476 36.9355 44.8738 37.7283 44.5849C40.1095 43.6755 41.5953 41.0155 41.589 38.4902L41.7709 12.1414L41.7481 12.1613Z" fill="#B5B8BD"/>
<path opacity="0.61" d="M41.6108 12.2808C41.6274 9.73563 40.0952 7.53545 37.6095 7.08973C36.3767 6.87824 33.8291 7.04886 32.2831 7.35118C30.0411 7.77777 19.4339 8.26096 18.9547 8.35704C16.6471 8.8006 14.3077 11.0394 14.2911 13.5845L14.1328 38.2659C14.1162 40.811 16.3583 42.6739 18.7412 43.0485C19.3576 43.1543 30.7514 44.1149 33.103 44.6372C34.0562 44.8512 36.7267 44.7745 37.4966 44.5054C39.855 43.6159 41.4008 41.0241 41.3946 38.4989L41.568 12.2779L41.6108 12.2808Z" fill="#B2B5BB"/>
<path opacity="0.63" d="M41.4527 12.3773C41.4693 9.83215 39.8915 7.67169 37.4258 7.24872C36.2786 7.043 33.731 7.21362 32.2934 7.50186C30.2026 7.91724 19.447 8.36903 18.9906 8.44525C16.663 8.86606 14.3464 11.085 14.3298 13.6301L14.1743 38.2689C14.1577 40.814 16.3798 42.6542 18.7827 43.0515C19.3791 43.1345 30.8612 44.0583 33.0645 44.5492C33.9549 44.7376 36.6453 44.6836 37.3497 44.4315C39.7281 43.5648 41.2911 41.0383 41.3048 38.5358L41.4699 12.4426L41.4527 12.3773Z" fill="#AFB2B8"/>
<path opacity="0.66" d="M41.2948 12.5165C41.3114 9.97135 39.7108 7.83075 37.2451 7.40777C36.1607 7.22769 33.6359 7.37844 32.2867 7.62984C30.3271 8.01127 19.4231 8.43167 18.9895 8.48803C16.6619 8.90885 14.3481 11.0851 14.3315 13.6303L14.1559 38.2463C14.1393 40.7915 16.3615 42.6316 18.7444 43.0062C19.298 43.0863 30.8485 43.9505 32.9262 44.3901C33.731 44.5728 36.4442 44.4989 37.103 44.2866C39.4813 43.4198 41.1015 41.0042 41.0953 38.4789L41.252 12.5136L41.2948 12.5165Z" fill="#ACAFB5"/>
<path opacity="0.68" d="M41.1372 12.6129C41.1538 10.0678 39.5076 7.96694 37.0419 7.54397C36.0431 7.36965 33.5183 7.52041 32.2775 7.75772C30.4492 8.1052 19.3967 8.4942 19.0059 8.55344C16.6784 8.97426 14.3673 11.1079 14.3507 13.6531L14.198 38.2493C14.1814 40.7944 16.4036 42.6345 18.7864 43.0091C19.2972 43.0863 30.9589 43.8939 32.8654 44.3219C33.6274 44.5017 36.3406 44.4278 36.9566 44.2126C39.3321 43.3884 40.9923 41.0183 40.9861 38.4931L41.1572 12.6357L41.1372 12.6129Z" fill="#A9ACB3"/>
<path opacity="0.71" d="M40.9796 12.7095C41.0162 10.1872 39.3272 8.08342 36.8388 7.68031C35.9028 7.53162 33.4008 7.66252 32.2484 7.863C30.5712 8.19927 19.3504 8.53411 18.9824 8.5735C16.6348 8.97157 14.3466 11.0854 14.3528 13.6106L14.2029 38.1641C14.1663 40.6865 16.3884 42.5267 18.7713 42.9012C19.2393 42.9756 30.9694 43.7235 32.7502 44.1003C33.4494 44.2545 36.2198 44.2914 36.733 44.0051C39.209 43.6157 40.8059 40.8989 40.7997 38.3737L40.9624 12.6442L40.9796 12.7095Z" fill="#A6A9B0"/>
<path opacity="0.73" d="M40.8438 12.8289C40.8576 10.3264 39.1458 8.24245 36.7001 7.84223C35.8497 7.69931 33.3477 7.83021 32.3038 8.0166C30.7578 8.31892 19.3886 8.62237 19.0634 8.66464C16.7158 9.06271 14.4304 11.1339 14.4366 13.6592L14.2667 38.1899C14.2529 40.6924 16.4294 42.5723 18.8351 42.927C19.2603 42.9985 31.1015 43.6897 32.7112 44.055C33.3676 44.2062 36.0952 44.2403 36.5856 43.9738C39.0815 43.6071 40.6957 40.9557 40.7095 38.4532L40.8638 12.8516L40.8438 12.8289Z" fill="#A3A6AD"/>
<path opacity="0.76" d="M40.6869 12.9255C40.7007 10.423 38.9661 8.35896 36.4977 7.9786C35.7328 7.84146 33.2108 7.9496 32.2753 8.1219C30.8833 8.37042 19.3429 8.66232 19.0177 8.70459C16.6473 9.12252 14.3875 11.1313 14.3937 13.6565L14.2465 38.1674C14.2328 40.6699 16.3893 42.527 18.8177 42.8619C19.2229 42.9106 31.1098 43.5621 32.6138 43.8989C33.2074 44.0245 35.935 44.0586 36.3798 43.8318C38.873 43.5077 40.5272 40.9018 40.541 38.3993L40.6869 12.9255Z" fill="#A0A4AA"/>
<path opacity="0.78" d="M40.5489 13.0448C40.5627 10.5423 38.7825 8.51798 36.3141 8.13762C35.6121 8.0261 33.1129 8.11439 32.2629 8.29246C31.0221 8.52977 19.3133 8.76754 19.0309 8.81269C16.6406 9.20788 14.4035 11.1968 14.4097 13.722L14.2426 38.2101C14.2288 40.7126 16.3853 42.5698 18.8138 42.9046C19.1762 42.9505 31.1742 43.5453 32.4871 43.8477C33.0179 43.9477 35.7655 44.0046 36.1674 43.7749C38.6578 43.4934 40.372 40.9558 40.3658 38.4305L40.5461 13.0874L40.5489 13.0448Z" fill="#9DA1A8"/>
<path opacity="0.8" d="M40.3702 13.1612C40.384 10.6587 38.581 8.65428 36.0898 8.29377C35.4734 8.18803 32.9742 8.27632 32.2126 8.41755C31.103 8.62091 19.2458 8.82727 19.0062 8.87531C16.6158 9.27049 14.3816 11.2168 14.3878 13.742L14.2234 38.1875C14.2097 40.69 16.3462 42.5244 18.7746 42.8593C19.0942 42.9022 31.1807 43.4602 32.3679 43.7114C32.8331 43.8284 35.5835 43.8426 35.9399 43.6527C38.4275 43.4138 40.1817 40.9216 40.1755 38.3964L40.3474 13.1811L40.3702 13.1612Z" fill="#9A9EA5"/>
<path opacity="0.83" d="M40.2332 13.2805C40.247 10.778 38.3984 8.81329 35.9728 8.43582C35.4192 8.3557 32.9656 8.40427 32.2896 8.55128C31.3112 8.72069 19.3057 8.89564 19.0889 8.92382C16.6785 9.29626 14.4671 11.2227 14.4733 13.7479L14.3317 38.1735C14.3179 40.676 16.4545 42.5104 18.8829 42.8453C19.1597 42.8853 31.3373 43.3639 32.3533 43.6035C32.7557 43.6949 35.5261 43.7318 35.8169 43.5589C38.3245 43.3427 40.0959 40.9159 40.1097 38.4134L40.2732 13.326L40.2332 13.2805Z" fill="#979BA2"/>
<path opacity="0.85" d="M40.0764 13.3771C40.0901 10.8746 38.2388 8.95248 35.7476 8.59197C35.2795 8.51763 32.826 8.56619 32.2384 8.67636C31.4112 8.83457 19.2372 8.95538 19.0632 8.98645C16.6528 9.35889 14.487 11.2456 14.4504 13.7679L14.2888 38.1708C14.275 40.6733 16.3916 42.4849 18.82 42.8198C19.054 42.857 31.32 43.2987 32.2105 43.4871C32.5701 43.5755 35.3205 43.5898 35.5657 43.4565C38.0704 43.283 39.8818 40.9017 39.8956 38.3992L40.0508 13.4396L40.0764 13.3771Z" fill="#93989F"/>
<path opacity="0.88" d="M39.9203 13.4737C39.9341 10.9712 38.0371 9.08877 35.5687 8.7084C35.1863 8.63983 32.7327 8.68841 32.2335 8.76174C31.5375 8.886 19.2152 8.97541 19.064 8.98661C16.6536 9.35905 14.4906 11.2031 14.4768 13.7056L14.318 38.0659C14.3042 40.5684 16.4207 42.38 18.872 42.695C19.0632 42.7293 31.4204 43.0916 32.1396 43.2684C32.4364 43.3312 35.164 43.3653 35.3864 43.2519C37.8684 43.0983 39.7398 40.7852 39.7536 38.2827L39.9231 13.4311L39.9203 13.4737Z" fill="#90959D"/>
<path opacity="0.9" d="M39.7824 13.5929C39.7962 11.0904 37.8764 9.22784 35.3852 8.86734C35.0656 8.8244 32.6148 8.83037 32.244 8.91236C31.6992 9.02541 19.2084 9.06067 19.1001 9.07477C16.6697 9.42446 14.5295 11.2487 14.5157 13.7512L14.3569 38.1114C14.3431 40.6139 16.4396 42.4028 18.9109 42.7405C19.0593 42.7719 31.5048 43.0974 32.0985 43.223C32.3325 43.2601 35.0801 43.317 35.2596 43.2007C37.7616 43.0698 39.6502 40.8221 39.664 38.3196L39.8252 13.5958L39.7824 13.5929Z" fill="#8D929A"/>
<path opacity="0.93" d="M39.6265 13.6895C39.6403 11.187 37.6749 9.36415 35.2037 9.02639C34.9697 8.98922 32.5189 8.99519 32.2137 9.0602C31.8001 9.13931 19.161 9.14317 19.0754 9.13739C16.6222 9.50695 14.5075 11.2687 14.4938 13.7712L14.3378 38.0888C14.324 40.5913 16.4205 42.3802 18.8717 42.6952C19.0001 42.7039 31.5141 42.9697 31.9365 43.0838C32.1277 43.1181 34.8553 43.1522 34.9893 43.0756C37.4885 42.9873 39.4371 40.8078 39.4509 38.3053L39.6037 13.7093L39.6265 13.6895Z" fill="#8A8F97"/>
<path opacity="0.95" d="M39.4661 13.8287C39.4799 11.3262 37.4917 9.5232 35.0205 9.18544C34.8721 9.15404 32.4213 9.16001 32.2245 9.21093C31.9421 9.25609 19.1546 9.22855 19.1118 9.22566C16.6386 9.57247 14.5468 11.3144 14.533 13.8169L14.3798 38.0918C14.366 40.5943 16.4197 42.3803 18.9138 42.6982C18.9994 42.704 31.6017 42.933 31.8985 42.9958C32.0041 43.0243 34.7545 43.0386 34.8429 43.0017C37.3393 42.956 39.3279 40.822 39.3417 38.3195L39.5089 13.8315L39.4661 13.8287Z" fill="#878C94"/>
<path opacity="0.98" d="M39.3104 13.9252C39.3242 11.4227 37.3132 9.63962 34.8192 9.32172C34.7336 9.31595 32.3056 9.30206 32.1972 9.31615C32.066 9.3501 19.11 9.26841 19.0872 9.28827C16.6141 9.63508 14.525 11.3344 14.5112 13.8369L14.3581 38.1119C14.3443 40.6144 16.398 42.4003 18.872 42.6955C18.872 42.6955 31.6084 42.848 31.7568 42.8794C31.8196 42.905 34.57 42.9192 34.5928 42.8994C37.0864 42.8963 39.115 40.8078 39.1288 38.3053L39.2876 13.9451L39.3104 13.9252Z" fill="#848992"/>
<path d="M39.1534 14.0218C39.1672 11.5194 37.1302 9.47773 34.6394 9.43821L32.2115 9.42431L19.1071 9.31124C16.5935 9.29157 14.5477 11.3147 14.5139 13.7945L14.3635 38.0268C14.3497 40.5293 16.3867 42.571 18.8775 42.6105L31.6594 42.7232L34.4098 42.7375C36.9234 42.7571 38.9692 40.734 38.983 38.2315L39.1334 13.9991L39.1534 14.0218Z" fill="#81868F"/>
</g>
<path d="M38.7918 14.0067L38.603 38.251C38.5835 40.7569 36.5356 42.7646 34.0182 42.7459L18.4888 42.6302C15.9713 42.6114 13.9549 40.5734 13.9744 38.0674L14.1631 13.8231C14.1826 11.3172 16.2305 9.30945 18.748 9.32821L34.2774 9.44394C36.7949 9.4627 38.8113 11.5007 38.7918 14.0067Z" fill="#22222A"/>
<path d="M17.7994 38.1627C18.3827 39.1007 19.6099 39.3975 20.5307 38.7962C21.4714 38.2177 21.7437 37.0165 21.1604 36.0785C20.5771 35.1405 19.3699 34.8665 18.4291 35.445C17.4884 36.0235 17.1933 37.2446 17.7994 38.1627Z" fill="url(#paint0_linear_209_548)"/>
<path style="mix-blend-mode:multiply" d="M17.7994 38.1627C18.3827 39.1007 19.5899 39.3747 20.5307 38.7962C21.4714 38.2177 21.7437 37.0165 21.1604 36.0785C20.5771 35.1405 19.3699 34.8665 18.4291 35.445C17.4884 36.0235 17.2161 37.2247 17.7994 38.1627ZM18.247 37.8934C17.7981 37.1998 18.0508 36.2968 18.7236 35.8714C19.4391 35.4489 20.3268 35.6799 20.7556 36.3507C21.2045 37.0443 20.9518 37.9473 20.279 38.3727C19.6063 38.7981 18.6758 38.5642 18.247 37.8934Z" fill="url(#paint1_radial_209_548)"/>
<path d="M20.9615 37.135C20.9718 36.3226 20.2834 35.677 19.4674 35.6648C18.6513 35.6526 17.9846 36.3137 17.9943 37.1489C17.984 37.9613 18.6724 38.6068 19.4884 38.619C20.3044 38.6312 20.9712 37.9701 20.9615 37.135Z" fill="url(#paint2_radial_209_548)"/>
<path d="M19.202 38.7072C18.46 38.5502 17.9 37.9134 17.8875 37.1209C17.875 36.3284 18.4333 35.6814 19.1949 35.5401L19.2248 38.6873L19.202 38.7072Z" fill="url(#paint3_radial_209_548)"/>
<path d="M19.8044 38.7038L19.7745 35.5565C20.5165 35.7135 21.0765 36.3504 21.069 37.1201C21.0815 37.9126 20.5231 38.5597 19.7616 38.7009L19.8044 38.7038Z" fill="url(#paint4_radial_209_548)"/>
<path d="M19.2027 38.7068L19.2539 38.5819L19.2301 35.6706L19.1728 35.5598L19.2027 38.7068Z" fill="#2C2E32"/>
<path d="M19.8047 38.704L19.7702 38.5733L19.7236 35.6818L19.7976 35.537L19.8047 38.704Z" fill="#5D636C"/>
<path d="M31.3043 37.4288C31.4056 38.5055 32.3853 39.299 33.4665 39.2007C34.5477 39.1025 35.3424 38.129 35.2411 37.0523C35.1398 35.9756 34.1601 35.1821 33.0589 35.2576C31.9777 35.3559 31.183 36.3294 31.2843 37.4061L31.3043 37.4288Z" fill="url(#paint5_linear_209_548)"/>
<path style="mix-blend-mode:multiply" d="M31.3043 37.4288C31.4056 38.5055 32.3853 39.299 33.4665 39.2007C34.5477 39.1024 35.3424 38.129 35.2411 37.0523C35.1398 35.9756 34.1601 35.1821 33.0789 35.2803C31.9977 35.3786 31.203 36.3521 31.3043 37.4288ZM31.8007 37.398C31.7254 36.5799 32.3093 35.8704 33.1309 35.7974C33.9525 35.7244 34.6666 36.3074 34.7419 37.1256C34.8172 37.9438 34.2332 38.6533 33.4116 38.7263C32.59 38.7993 31.876 38.2162 31.8007 37.398Z" fill="url(#paint6_radial_209_548)"/>
<path d="M34.6277 37.8668C34.9976 37.1428 34.6683 36.2647 33.9403 35.8947C33.2122 35.5246 32.3311 35.8504 31.9611 36.5743C31.5912 37.2983 31.9205 38.1764 32.6485 38.5464C33.3766 38.9164 34.2577 38.5907 34.6277 37.8668Z" fill="url(#paint7_radial_209_548)"/>
<path d="M32.3297 38.5047C31.7155 38.0353 31.4889 37.2281 31.8361 36.5238C32.1834 35.8195 32.9791 35.4879 33.7186 35.6876L32.3497 38.5275L32.3297 38.5047Z" fill="url(#paint8_radial_209_548)"/>
<path d="M32.8903 38.7764L34.2592 35.9365C34.8534 36.3832 35.0772 37.233 34.7528 37.9175C34.4055 38.6218 33.6097 38.9533 32.8903 38.7764Z" fill="url(#paint9_radial_209_548)"/>
<path d="M32.3286 38.5047L32.4198 38.4252L33.7094 35.8147L33.6978 35.6641L32.3286 38.5047Z" fill="#2C2E32"/>
<path d="M32.8912 38.7773L32.8995 38.6494L34.1664 36.0587L34.2804 35.9594L32.8912 38.7773Z" fill="#5D636C"/>
<path d="M18.2167 16.2143C18.9595 17.0133 20.2236 17.0771 21.0271 16.2968C21.8278 15.5591 21.8889 14.3008 21.1032 13.4989C20.3603 12.7 19.0963 12.6361 18.2928 13.4165C17.4921 14.1542 17.431 15.4125 18.2167 16.2143Z" fill="url(#paint10_linear_209_548)"/>
<path style="mix-blend-mode:multiply" d="M18.218 16.2143C18.9608 17.0133 20.2249 17.0771 21.0284 16.2968C21.8291 15.5591 21.8674 14.3206 21.1045 13.4989C20.3616 12.6999 19.0976 12.6361 18.2941 13.4164C17.4934 14.1541 17.4551 15.3926 18.218 16.2143ZM18.6055 15.8767C18.0655 15.2625 18.0814 14.3649 18.6769 13.806C19.2925 13.2698 20.1941 13.2877 20.757 13.882C21.297 14.4961 21.2811 15.3937 20.6856 15.9527C20.07 16.4889 19.1684 16.4709 18.6055 15.8767Z" fill="url(#paint11_radial_209_548)"/>
<path d="M21.0968 14.5897C20.9331 13.8084 20.1506 13.2849 19.3662 13.446C18.5818 13.6071 18.0579 14.3848 18.2216 15.1662C18.3853 15.9475 19.1677 16.471 19.9521 16.3099C20.7365 16.1488 21.2604 15.3711 21.0968 14.5897Z" fill="url(#paint12_radial_209_548)"/>
<path d="M19.6614 16.4835C18.9083 16.4969 18.2116 15.9793 18.048 15.1981C17.8843 14.417 18.3198 13.6762 19.004 13.4014L19.6386 16.5034L19.6614 16.4835Z" fill="url(#paint13_radial_209_548)"/>
<path d="M20.2951 16.3321L19.6605 13.2301C20.4135 13.2167 21.0875 13.7541 21.2539 14.4927C21.4176 15.2739 21.0049 15.9949 20.2978 16.2895L20.2951 16.3321Z" fill="url(#paint14_radial_209_548)"/>
<path d="M19.6603 16.4828L19.6915 16.3352L19.1258 13.495L19.0258 13.3814L19.6603 16.4828Z" fill="#2C2E32"/>
<path d="M20.2954 16.332L20.2154 16.241L19.627 13.4207L19.6581 13.2731L20.2954 16.332Z" fill="#5D636C"/>
<path d="M31.5464 15.5113C31.8418 16.5796 32.941 17.1887 33.9934 16.8745C35.0658 16.583 35.6749 15.4901 35.3568 14.4416C35.0615 13.3732 33.9622 12.7642 32.8898 13.0556C31.8174 13.3471 31.2084 14.44 31.5037 15.5084L31.5464 15.5113Z" fill="url(#paint15_linear_209_548)"/>
<path style="mix-blend-mode:multiply" d="M31.5474 15.5113C31.8427 16.5796 32.942 17.1887 33.9944 16.8745C35.0667 16.583 35.6758 15.4901 35.3577 14.4416C35.0624 13.3732 33.9632 12.7642 32.9108 13.0784C31.8384 13.3698 31.2293 14.4628 31.5474 15.5113ZM32.0294 15.3726C31.8229 14.5884 32.284 13.785 33.0512 13.5586C33.8384 13.3549 34.6465 13.8159 34.8757 14.5802C35.0822 15.3645 34.6211 16.1679 33.8539 16.3943C33.0667 16.598 32.2587 16.137 32.0294 15.3726Z" fill="url(#paint16_radial_209_548)"/>
<path d="M34.8886 15.3727C35.113 14.5747 34.6497 13.7732 33.8677 13.5707C33.0656 13.3454 32.2617 13.8047 32.0601 14.5828C31.8358 15.3808 32.2991 16.1823 33.0811 16.3848C33.8831 16.6101 34.6871 16.1508 34.9086 15.3954L34.8886 15.3727Z" fill="url(#paint17_radial_209_548)"/>
<path d="M32.7357 16.4053C32.0703 16.0609 31.7126 15.2878 31.8914 14.5294C32.1129 13.7739 32.8314 13.3088 33.5791 13.3806L32.7129 16.4252L32.7357 16.4053Z" fill="url(#paint18_radial_209_548)"/>
<path d="M33.3254 16.5722L34.1688 13.5474C34.8342 13.8919 35.1919 14.665 34.9931 15.4006C34.7716 16.1561 34.0531 16.6212 33.3054 16.5494L33.3254 16.5722Z" fill="url(#paint19_radial_209_548)"/>
<path d="M32.735 16.4053L32.8291 16.2832L33.613 13.5109L33.6014 13.3603L32.735 16.4053Z" fill="#2C2E32"/>
<path d="M33.3258 16.5727L33.3142 16.4221L34.0982 13.6497L34.2122 13.5504L33.3258 16.5727Z" fill="#5D636C"/>
<defs>
<linearGradient id="paint0_linear_209_548" x1="17.6068" y1="36.5017" x2="21.4336" y2="37.5643" gradientUnits="userSpaceOnUse">
<stop stop-color="#646A73"/>
<stop offset="1" stop-color="#BDC8D9"/>
</linearGradient>
<radialGradient id="paint1_radial_209_548" cx="0" cy="0" r="1" gradientUnits="userSpaceOnUse" gradientTransform="translate(19.5163 37.121) rotate(-146.145) scale(1.97087 1.96323)">
<stop offset="0.83" stop-color="#1D1E21"/>
<stop offset="0.86" stop-color="#3C3F44"/>
<stop offset="0.9" stop-color="#565B63"/>
<stop offset="0.94" stop-color="#6A707A"/>
<stop offset="0.97" stop-color="#767C87"/>
<stop offset="1" stop-color="#7A818C"/>
</radialGradient>
<radialGradient id="paint2_radial_209_548" cx="0" cy="0" r="1" gradientUnits="userSpaceOnUse" gradientTransform="translate(19.4648 37.1141) rotate(-0.134627) scale(1.48611 1.47959)">
<stop offset="0.56" stop-color="#383B40"/>
<stop offset="0.81" stop-color="#36393E"/>
<stop offset="0.9" stop-color="#303237"/>
<stop offset="0.96" stop-color="#26272B"/>
<stop offset="1" stop-color="#1D1E21"/>
</radialGradient>
<radialGradient id="paint3_radial_209_548" cx="0" cy="0" r="1" gradientUnits="userSpaceOnUse" gradientTransform="translate(18.5867 37.6601) rotate(-0.134625) scale(2.63847 2.6269)">
<stop stop-color="#7A818C"/>
<stop offset="1" stop-color="#202225"/>
</radialGradient>
<radialGradient id="paint4_radial_209_548" cx="0" cy="0" r="1" gradientUnits="userSpaceOnUse" gradientTransform="translate(18.7994 37.6584) rotate(-0.134718) scale(2.57784 2.56654)">
<stop stop-color="#7A818C"/>
<stop offset="1" stop-color="#202225"/>
</radialGradient>
<linearGradient id="paint5_linear_209_548" x1="31.7474" y1="35.7936" x2="34.7366" y2="38.4336" gradientUnits="userSpaceOnUse">
<stop stop-color="#646A73"/>
<stop offset="1" stop-color="#BDC8D9"/>
</linearGradient>
<radialGradient id="paint6_radial_209_548" cx="0" cy="0" r="1" gradientUnits="userSpaceOnUse" gradientTransform="translate(33.305 37.2225) rotate(-146.145) scale(1.97087 1.96323)">
<stop offset="0.83" stop-color="#1D1E21"/>
<stop offset="0.86" stop-color="#3C3F44"/>
<stop offset="0.9" stop-color="#565B63"/>
<stop offset="0.94" stop-color="#6A707A"/>
<stop offset="0.97" stop-color="#767C87"/>
<stop offset="1" stop-color="#7A818C"/>
</radialGradient>
<radialGradient id="paint7_radial_209_548" cx="0" cy="0" r="1" gradientUnits="userSpaceOnUse" gradientTransform="translate(33.2312 37.1883) rotate(25.8891) scale(1.48627 1.47944)">
<stop offset="0.56" stop-color="#383B40"/>
<stop offset="0.81" stop-color="#36393E"/>
<stop offset="0.9" stop-color="#303237"/>
<stop offset="0.96" stop-color="#26272B"/>
<stop offset="1" stop-color="#1D1E21"/>
</radialGradient>
<radialGradient id="paint8_radial_209_548" cx="0" cy="0" r="1" gradientUnits="userSpaceOnUse" gradientTransform="translate(32.175 37.2804) rotate(25.8892) scale(2.63958 2.62746)">
<stop stop-color="#7A818C"/>
<stop offset="1" stop-color="#202225"/>
</radialGradient>
<radialGradient id="paint9_radial_209_548" cx="0" cy="0" r="1" gradientUnits="userSpaceOnUse" gradientTransform="translate(32.3915 37.3847) rotate(25.8892) scale(2.57892 2.56708)">
<stop stop-color="#7A818C"/>
<stop offset="1" stop-color="#202225"/>
</radialGradient>
<linearGradient id="paint10_linear_209_548" x1="17.6654" y1="14.7561" x2="21.6691" y2="15.0403" gradientUnits="userSpaceOnUse">
<stop stop-color="#646A73"/>
<stop offset="1" stop-color="#BDC8D9"/>
</linearGradient>
<radialGradient id="paint11_radial_209_548" cx="0" cy="0" r="1" gradientUnits="userSpaceOnUse" gradientTransform="translate(19.6966 14.8534) rotate(-146.145) scale(1.97087 1.96323)">
<stop offset="0.83" stop-color="#1D1E21"/>
<stop offset="0.86" stop-color="#3C3F44"/>
<stop offset="0.9" stop-color="#565B63"/>
<stop offset="0.94" stop-color="#6A707A"/>
<stop offset="0.97" stop-color="#767C87"/>
<stop offset="1" stop-color="#7A818C"/>
</radialGradient>
<radialGradient id="paint12_radial_209_548" cx="0" cy="0" r="1" gradientUnits="userSpaceOnUse" gradientTransform="translate(19.7162 14.8051) rotate(-11.4614) scale(1.48517 1.48054)">
<stop offset="0.56" stop-color="#383B40"/>
<stop offset="0.81" stop-color="#36393E"/>
<stop offset="0.9" stop-color="#303237"/>
<stop offset="0.96" stop-color="#26272B"/>
<stop offset="1" stop-color="#1D1E21"/>
</radialGradient>
<radialGradient id="paint13_radial_209_548" cx="0" cy="0" r="1" gradientUnits="userSpaceOnUse" gradientTransform="translate(18.9354 15.5192) rotate(-11.4616) scale(2.63641 2.62821)">
<stop stop-color="#7A818C"/>
<stop offset="1" stop-color="#202225"/>
</radialGradient>
<radialGradient id="paint14_radial_209_548" cx="0" cy="0" r="1" gradientUnits="userSpaceOnUse" gradientTransform="translate(19.1439 15.4755) rotate(-11.4615) scale(2.57583 2.56781)">
<stop stop-color="#7A818C"/>
<stop offset="1" stop-color="#202225"/>
</radialGradient>
<linearGradient id="paint15_linear_209_548" x1="31.6263" y1="13.9894" x2="35.0409" y2="16.0969" gradientUnits="userSpaceOnUse">
<stop stop-color="#646A73"/>
<stop offset="1" stop-color="#BDC8D9"/>
</linearGradient>
<radialGradient id="paint16_radial_209_548" cx="0" cy="0" r="1" gradientUnits="userSpaceOnUse" gradientTransform="translate(33.4839 14.9548) rotate(-146.145) scale(1.97087 1.96323)">
<stop offset="0.83" stop-color="#1D1E21"/>
<stop offset="0.86" stop-color="#3C3F44"/>
<stop offset="0.9" stop-color="#565B63"/>
<stop offset="0.94" stop-color="#6A707A"/>
<stop offset="0.97" stop-color="#767C87"/>
<stop offset="1" stop-color="#7A818C"/>
</radialGradient>
<radialGradient id="paint17_radial_209_548" cx="0" cy="0" r="1" gradientUnits="userSpaceOnUse" gradientTransform="translate(33.5164 14.9081) rotate(15.9076) scale(1.48657 1.47914)">
<stop offset="0.56" stop-color="#383B40"/>
<stop offset="0.81" stop-color="#36393E"/>
<stop offset="0.9" stop-color="#303237"/>
<stop offset="0.96" stop-color="#26272B"/>
<stop offset="1" stop-color="#1D1E21"/>
</radialGradient>
<radialGradient id="paint18_radial_209_548" cx="0" cy="0" r="1" gradientUnits="userSpaceOnUse" gradientTransform="translate(32.4917 15.182) rotate(15.9076) scale(2.63979 2.6266)">
<stop stop-color="#7A818C"/>
<stop offset="1" stop-color="#202225"/>
</radialGradient>
<radialGradient id="paint19_radial_209_548" cx="0" cy="0" r="1" gradientUnits="userSpaceOnUse" gradientTransform="translate(32.6948 15.2388) rotate(15.9076) scale(2.57912 2.56624)">
<stop stop-color="#7A818C"/>
<stop offset="1" stop-color="#202225"/>
</radialGradient>
</defs>
</svg>
