<svg xmlns="http://www.w3.org/2000/svg" width="101" height="74" fill="none" viewBox="0 0 101 74"><circle cx="8.5" cy="41.5" r="8.5" fill="#fff"/><path fill="#fff" d="M64.8726 5.70726C60.6891 5.59062 56.5246 6.31393 52.6255 7.83442C48.7263 9.35492 45.1716 11.6417 42.1714 14.5597C39.1713 17.4776 36.7866 20.9675 35.1584 24.8229C33.5302 28.6783 32.6914 32.821 32.6918 37.0062C32.6918 37.8037 32.7227 38.5982 32.7843 39.3896C32.8676 40.5099 32.6183 41.6298 32.0676 42.6089C31.5168 43.588 30.6893 44.3827 29.6887 44.8933L27 46.2654V52.6603L34.918 48.6242L37.4833 47.3168L40.0117 46.0311L85.3675 22.9184L90.4642 20.3223L101 14.9542V8.55935L90.5568 13.8873L81.6459 18.4291L38.618 40.3454C38.4701 39.2355 38.398 38.1167 38.4022 36.9969C38.4081 32.5316 39.5805 28.1453 41.8031 24.2725C44.0258 20.3996 47.2216 17.1746 51.0741 14.9169C54.9266 12.6592 59.3021 11.4471 63.7672 11.4006C68.2323 11.3541 72.632 12.4749 76.5307 14.652L81.6305 12.0528L82.3921 11.6643C77.2862 7.95804 71.1794 5.88158 64.8726 5.70726ZM101 21.3521L42.5862 51.0939L37.4895 53.6963L27 59.0458V65.4345L37.4155 60.125L46.3263 55.5833L89.4005 33.6392C89.5407 34.7561 89.6127 35.8805 89.6163 37.0062C89.6135 41.4766 88.4415 45.8685 86.2167 49.746C83.9919 53.6235 80.7916 56.8516 76.9337 59.1101C73.0757 61.3685 68.6941 62.5786 64.2239 62.6204C59.7537 62.6621 55.3503 61.534 51.4508 59.348L51.1394 59.5145L45.611 62.3327C50.282 65.7235 55.7995 67.757 61.5538 68.2085C67.3081 68.6601 73.0753 67.5121 78.218 64.8914C83.3608 62.2707 87.679 58.2794 90.6955 53.3583C93.712 48.4373 95.3094 42.7782 95.3112 37.0062C95.3112 36.2004 95.2804 35.3987 95.2188 34.6012C95.1352 33.4812 95.3841 32.3615 95.9342 31.3825C96.4844 30.4034 97.3113 29.6085 98.3113 29.0974L101 27.7253V21.3521Z"/></svg>