<svg xmlns="http://www.w3.org/2000/svg" width="1419" height="187" fill="none" viewBox="0 0 1419 187"><path fill="#fff" fill-opacity=".3" d="M93.8289 171.52C19.8489 171.52 12.1089 141.46 12.1089 124V122.2H68.2689C68.8089 129.4 72.5889 141.1 101.749 141.1H103.369C131.989 141.1 136.129 134.98 136.129 128.5V128.32C136.129 121.66 132.889 116.98 104.629 116.26L79.7889 115.54C27.9489 113.92 14.0889 96.0999 14.0889 75.2199V73.5999C14.0889 51.8199 28.8489 32.7399 91.1289 32.7399H107.149C173.389 32.7399 188.509 53.7999 188.509 75.0399V76.4799H132.889C132.349 71.6199 129.469 62.2599 100.489 62.2599H98.6889C71.8689 62.2599 69.1689 66.9399 69.1689 72.1599V72.3399C69.1689 77.7399 73.1289 82.2399 98.3289 82.5999L122.449 83.1399C173.389 84.3999 193.189 96.6399 193.189 123.46V125.98C193.189 148.66 180.589 171.52 110.209 171.52H93.8289ZM253.099 169V71.6199H195.319V35.0799H361.999V71.6199H304.219V169H253.099ZM457.64 113.92L435.14 67.8399L413.18 113.92H457.64ZM484.46 169L474.02 147.4H397.52L387.26 169H335.42L401.66 35.0799H470.42L540.44 169H484.46ZM545.045 35.0799H596.165V130.66H689.045V169H545.045V35.0799ZM701.491 35.0799H752.611V130.66H845.491V169H701.491V35.0799ZM908.876 35.0799V169H857.936V35.0799H908.876ZM1018.32 32.5599H1026.42C1112.82 32.5599 1123.98 73.5999 1123.98 98.9799V104.38C1123.98 129.4 1113 171.52 1026.42 171.52H1018.32C931.564 171.52 920.584 129.4 920.584 104.38V98.9799C920.584 73.5999 931.564 32.5599 1018.32 32.5599ZM1071.06 100.24C1071.06 86.0199 1062.06 68.5599 1022.28 68.5599C981.964 68.5599 973.504 86.0199 973.504 100.24V102.4C973.504 116.44 982.684 135.34 1022.28 135.34C1061.88 135.34 1071.06 116.98 1071.06 102.76V100.24ZM1135.67 35.0799H1192.91L1270.67 111.22V35.0799H1321.43V169H1270.31L1186.43 87.8199V169H1135.67V35.0799ZM1413.24 171.52C1339.26 171.52 1331.52 141.46 1331.52 124V122.2H1387.68C1388.22 129.4 1392 141.1 1421.16 141.1H1422.78C1451.4 141.1 1455.54 134.98 1455.54 128.5V128.32C1455.54 121.66 1452.3 116.98 1424.04 116.26L1399.2 115.54C1347.36 113.92 1333.5 96.0999 1333.5 75.2199V73.5999C1333.5 51.8199 1348.26 32.7399 1410.54 32.7399H1426.56C1492.8 32.7399 1507.92 53.7999 1507.92 75.0399V76.4799H1452.3C1451.76 71.6199 1448.88 62.2599 1419.9 62.2599H1418.1C1391.28 62.2599 1388.58 66.9399 1388.58 72.1599V72.3399C1388.58 77.7399 1392.54 82.2399 1417.74 82.5999L1441.86 83.1399C1492.8 84.3999 1512.6 96.6399 1512.6 123.46V125.98C1512.6 148.66 1500 171.52 1429.62 171.52H1413.24ZM1688.46 113.92L1665.96 67.8399L1644 113.92H1688.46ZM1715.28 169L1704.84 147.4H1628.34L1618.08 169H1566.24L1632.48 35.0799H1701.24L1771.26 169H1715.28ZM1845.49 171.52C1771.51 171.52 1763.77 141.46 1763.77 124V122.2H1819.93C1820.47 129.4 1824.25 141.1 1853.41 141.1H1855.03C1883.65 141.1 1887.79 134.98 1887.79 128.5V128.32C1887.79 121.66 1884.55 116.98 1856.29 116.26L1831.45 115.54C1779.61 113.92 1765.75 96.0999 1765.75 75.2199V73.5999C1765.75 51.8199 1780.51 32.7399 1842.79 32.7399H1858.81C1925.05 32.7399 1940.17 53.7999 1940.17 75.0399V76.4799H1884.55C1884.01 71.6199 1881.13 62.2599 1852.15 62.2599H1850.35C1823.53 62.2599 1820.83 66.9399 1820.83 72.1599V72.3399C1820.83 77.7399 1824.79 82.2399 1849.99 82.5999L1874.11 83.1399C1925.05 84.3999 1944.85 96.6399 1944.85 123.46V125.98C1944.85 148.66 1932.25 171.52 1861.87 171.52H1845.49ZM2031.47 171.52C1957.49 171.52 1949.75 141.46 1949.75 124V122.2H2005.91C2006.45 129.4 2010.23 141.1 2039.39 141.1H2041.01C2069.63 141.1 2073.77 134.98 2073.77 128.5V128.32C2073.77 121.66 2070.53 116.98 2042.27 116.26L2017.43 115.54C1965.59 113.92 1951.73 96.0999 1951.73 75.2199V73.5999C1951.73 51.8199 1966.49 32.7399 2028.77 32.7399H2044.79C2111.03 32.7399 2126.15 53.7999 2126.15 75.0399V76.4799H2070.53C2069.99 71.6199 2067.11 62.2599 2038.13 62.2599H2036.33C2009.51 62.2599 2006.81 66.9399 2006.81 72.1599V72.3399C2006.81 77.7399 2010.77 82.2399 2035.97 82.5999L2060.09 83.1399C2111.03 84.3999 2130.83 96.6399 2130.83 123.46V125.98C2130.83 148.66 2118.23 171.52 2047.85 171.52H2031.47ZM2141.31 35.0799H2289.45V67.8399H2191.71V84.5799H2287.47V117.16H2191.71V135.52H2290.89V169H2141.31V35.0799ZM2304.62 169V35.0799H2374.82L2415.86 110.32L2457.62 35.0799H2524.94V169H2474.36V85.4799L2427.38 169H2401.28L2354.48 85.4799V169H2304.62ZM2541.22 169V35.0799H2667.22C2706.28 35.0799 2716.72 50.0199 2716.72 65.4999V67.4799C2716.72 84.0399 2702.5 91.7799 2693.68 93.7599C2705.56 96.4599 2724.46 104.56 2724.46 128.14V130.3C2724.46 151.36 2711.5 169 2667.94 169H2541.22ZM2651.74 65.4999H2592.34V84.3999H2651.74C2662.36 84.3999 2665.42 80.0799 2665.42 75.0399V74.6799C2665.42 69.2799 2662.36 65.4999 2651.74 65.4999ZM2654.98 114.46H2592.34V137.5H2654.98C2668.3 137.5 2670.82 131.2 2670.82 125.98V125.44C2670.82 119.86 2668.12 114.46 2654.98 114.46ZM2734.23 35.0799H2785.35V130.66H2878.23V169H2734.23V35.0799ZM2890.67 35.0799H3038.81V67.8399H2941.07V84.5799H3036.83V117.16H2941.07V135.52H3040.25V169H2890.67V35.0799Z"/></svg>