<svg xmlns="http://www.w3.org/2000/svg" width="74" height="74" fill="none" viewBox="0 0 74 74"><path fill="#fff" d="M37.8726 5.70726C33.6891 5.59062 29.5246 6.31393 25.6255 7.83442C21.7263 9.35492 18.1716 11.6417 15.1714 14.5597C12.1713 17.4776 9.78659 20.9675 8.15837 24.8229C6.53015 28.6783 5.69144 32.821 5.69183 37.0062C5.69183 37.8037 5.72267 38.5982 5.78433 39.3896C5.86762 40.5099 5.61827 41.6298 5.06755 42.6089C4.51684 43.588 3.68927 44.3827 2.68867 44.8933L0 46.2654V52.6603L7.918 48.6242L10.4833 47.3168L13.0117 46.0311L58.3675 22.9184L63.4642 20.3223L74 14.9542V8.55935L63.5568 13.8873L54.6459 18.4291L11.618 40.3454C11.4701 39.2355 11.398 38.1167 11.4022 36.9969C11.4081 32.5316 12.5805 28.1453 14.8031 24.2725C17.0258 20.3996 20.2216 17.1746 24.0741 14.9169C27.9266 12.6592 32.3021 11.4471 36.7672 11.4006C41.2323 11.3541 45.632 12.4749 49.5307 14.652L54.6305 12.0528L55.3921 11.6643C50.2862 7.95804 44.1794 5.88158 37.8726 5.70726ZM74 21.3521L15.5862 51.0939L10.4895 53.6963L0 59.0458V65.4345L10.4155 60.125L19.3263 55.5833L62.4005 33.6392C62.5407 34.7561 62.6127 35.8805 62.6163 37.0062C62.6135 41.4766 61.4415 45.8685 59.2167 49.746C56.9919 53.6235 53.7916 56.8516 49.9337 59.1101C46.0757 61.3685 41.6941 62.5786 37.2239 62.6204C32.7537 62.6621 28.3503 61.534 24.4508 59.348L24.1394 59.5145L18.611 62.3327C23.282 65.7235 28.7995 67.757 34.5538 68.2085C40.3081 68.6601 46.0753 67.5121 51.218 64.8914C56.3608 62.2707 60.679 58.2794 63.6955 53.3583C66.712 48.4373 68.3094 42.7782 68.3112 37.0062C68.3112 36.2004 68.2804 35.3987 68.2188 34.6012C68.1352 33.4812 68.3841 32.3615 68.9342 31.3825C69.4844 30.4034 70.3113 29.6085 71.3113 29.0974L74 27.7253V21.3521Z"/></svg>