<svg width="24" height="24" viewBox="0 0 24 24" fill="none" xmlns="http://www.w3.org/2000/svg">
  <circle cx="12" cy="12" r="11" fill="#38761D" stroke="white" stroke-width="1"/>
  <path d="M8 8.5C8 8.5 8.5 7 11 7C13.5 7 14 8.5 14 8.5C14 8.5 15 10 13 12C11 14 13 15 13 15C13 15 11 16.5 9 16C7 15.5 6 14 6 14C6 14 8 12.5 8.5 11C9 9.5 8 8.5 8 8.5Z" fill="#4CAF50"/>
  <path d="M14 10C14 10 14.5 8.5 16 8.5C17.5 8.5 18 10 18 10C18 10 18.5 11 17.5 12C16.5 13 17.5 14 17.5 14C17.5 14 16.5 15 15.5 15C14.5 15 13.5 14 13.5 14C13.5 14 14.5 12.5 15 11.5C15.5 10.5 14 10 14 10Z" fill="#4CAF50"/>
</svg> 