<svg width="24" height="24" viewBox="0 0 24 24" fill="none" xmlns="http://www.w3.org/2000/svg">
  <circle cx="12" cy="12" r="11" fill="#2775CA" stroke="white" stroke-width="1"/>
  <path d="M12.6001 15.3V16.5C12.6001 16.7 12.4001 16.9 12.2001 16.9H11.2001C11.0001 16.9 10.8001 16.7 10.8001 16.5V15.3C9.80007 15.2 8.90007 14.8 8.30007 14.1C8.10007 13.9 8.10007 13.5 8.30007 13.3L9.00007 12.6C9.20007 12.4 9.50007 12.4 9.70007 12.6C10.0001 12.9 10.4001 13.1 10.9001 13.1H12.5001C13.2001 13.1 13.7001 12.6 13.7001 12C13.7001 11.4 13.3001 11 12.7001 10.9L10.3001 10.4C9.00007 10.2 8.00007 9 8.00007 7.7C8.00007 6.3 9.10007 5.1 10.5001 5V3.8C10.5001 3.6 10.7001 3.4 10.9001 3.4H11.9001C12.1001 3.4 12.3001 3.6 12.3001 3.8V5C13.3001 5.1 14.2001 5.5 14.8001 6.2C15.0001 6.4 15.0001 6.8 14.8001 7L14.1001 7.7C13.9001 7.9 13.6001 7.9 13.4001 7.7C13.1001 7.4 12.7001 7.2 12.2001 7.2H10.6001C9.90007 7.2 9.40007 7.7 9.40007 8.3C9.40007 8.9 9.80007 9.3 10.4001 9.4L12.8001 9.9C14.1001 10.1 15.1001 11.3 15.1001 12.6C15.1001 14.2 14.0001 15.3 12.6001 15.3Z" fill="white"/>
</svg> 